# xmcd CD database file
#
# Track frame offsets:
#	150
#	22582
#	44910
#
# Disc length: 741 seconds
#
# Revision: 0
# Processed by: cddbd v1.5.1PL0 Copyright (c) Steve Scherf et al.
# Submitted via: CDex 1.51
#
DISCID=1c02e303
DTITLE=HALATION - "The chain"
DYEAR=2005
DGENRE=Rock
TTITLE0="The chain"
TTITLE1=Freedive
TTITLE2=to my mind(voco mix)
EXTD=YEAR: 2005/07/27
EXTT0=
EXTT1=
EXTT2=
PLAYORDER=
